<svg viewBox="0 0 400 400" xmlns="http://www.w3.org/2000/svg" stroke="#4fd1c5" fill="none" stroke-width="2">
  <path d="M200,30 C230,30 245,90 245,160 L245,320 C245,345 225,365 200,370 C175,365 155,345 155,320 L155,160 C155,90 170,30 200,30 Z" />
  <path d="M155,190 L40,240 L45,255 L155,225 Z" />
  <path d="M245,190 L360,240 L355,255 L245,225 Z" />
  <path d="M170,335 L110,360 L115,368 L175,350 Z" />
  <path d="M230,335 L290,360 L285,368 L225,350 Z" />
  <line x1="200" y1="320" x2="200" y2="365" stroke-width="4" />
  <ellipse cx="95" cy="235" rx="10" ry="22" />
  <ellipse cx="305" cy="235" rx="10" ry="22" />
</svg>
