<svg viewBox="0 0 400 400" xmlns="http://www.w3.org/2000/svg" stroke="#4fd1c5" fill="none" stroke-width="2">
  <path d="M200,50 C222,50 233,100 233,150 L233,300 C233,322 218,338 200,342 C182,338 167,322 167,300 L167,150 C167,100 178,50 200,50 Z" />
  <path d="M167,180 L80,220 L84,233 L167,210 Z" />
  <path d="M233,180 L320,220 L316,233 L233,210 Z" />
  <ellipse cx="178" cy="290" rx="9" ry="20" />
  <ellipse cx="222" cy="290" rx="9" ry="20" />
  <path d="M175,315 L130,335 L134,343 L179,326 Z" />
  <path d="M225,315 L270,335 L266,343 L221,326 Z" />
  <line x1="200" y1="300" x2="200" y2="336" stroke-width="4" />
</svg>
