<svg viewBox="0 0 400 400" xmlns="http://www.w3.org/2000/svg" stroke="#4fd1c5" fill="none" stroke-width="2">
  <path d="M200,60 C218,60 227,105 227,150 L227,290 C227,310 215,325 200,328 C185,325 173,310 173,290 L173,150 C173,105 182,60 200,60 Z" />
  <path d="M173,170 L60,190 L62,204 L173,195 Z" />
  <path d="M227,170 L340,190 L338,204 L227,195 Z" />
  <circle cx="115" cy="197" r="16" stroke-width="1.5" />
  <circle cx="285" cy="197" r="16" stroke-width="1.5" />
  <ellipse cx="115" cy="197" rx="6" ry="14" />
  <ellipse cx="285" cy="197" rx="6" ry="14" />
  <path d="M180,300 L140,320 L144,328 L184,311 Z" />
  <path d="M220,300 L260,320 L256,328 L216,311 Z" />
  <line x1="200" y1="285" x2="200" y2="322" stroke-width="4" />
</svg>
