<svg viewBox="0 0 400 400" xmlns="http://www.w3.org/2000/svg" stroke="#4fd1c5" fill="none" stroke-width="2">
  <path d="M200,20 C240,20 260,95 260,170 L260,320 C260,348 232,368 200,375 C168,368 140,348 140,320 L140,170 C140,95 160,20 200,20 Z" />
  <path d="M140,185 L15,250 L22,268 L140,220 Z" />
  <path d="M260,185 L385,250 L378,268 L260,220 Z" />
  <path d="M165,340 L95,368 L102,378 L172,355 Z" />
  <path d="M235,340 L305,368 L298,378 L228,355 Z" />
  <line x1="200" y1="325" x2="200" y2="372" stroke-width="4" />
  <ellipse cx="65" cy="245" rx="12" ry="26" />
  <ellipse cx="335" cy="245" rx="12" ry="26" />
</svg>
